# xmcd
# 
# Track frame offsets:
#     150
#     34460
#     76347
#     106782
#     135435
#     173132
#     210637
#     256777
# 
# Disc length: 3614
# 
# Revision: 1
# Processed by: cddbd v1.5.2PL0 Copyright (c) Steve Scherf et al.
# Submitted via: BonkEnc v1.0.8
# 
DISCID=600e1c08
DTITLE=Sigi Finkel - Sweet Sue
DYEAR=1993
DGENRE=Contemporary Jazz
TTITLE0=Almost A Reggae
TTITLE1=Puri
TTITLE2=Sweet Sue
TTITLE3=Tobasco
TTITLE4=Domino Blue
TTITLE5=Tune In
TTITLE6=Prisma
TTITLE7=So Long
EXTD=YEAR: 1993
EXTT0=
EXTT1=
EXTT2=
EXTT3=
EXTT4=
EXTT5=
EXTT6=
EXTT7=
PLAYORDER=
